<?xml version="1.0" encoding="utf-8"?>
<!-- Generator: Adobe Illustrator 19.2.1, SVG Export Plug-In . SVG Version: 6.00 Build 0)  -->
<svg version="1.1" xmlns="http://www.w3.org/2000/svg" xmlns:xlink="http://www.w3.org/1999/xlink" x="0px" y="0px"
	 viewBox="0 0 81.6 75" style="enable-background:new 0 0 81.6 75;" xml:space="preserve">
<style type="text/css">
	.st0{fill:#1D1D1B;}
	.st1{display:none;}
	.st2{display:inline;fill:none;stroke:#72C8DA;stroke-width:0.25;stroke-miterlimit:10;}
</style>
<g id="Layer_1">
	<path class="st0" d="M74.5,1.4l-21,26.7c0.2-1.3,0.3-2.6,0.3-4C53.8,10.2,43.7,0,28.3,0H0v75h13.8c0.7,0,1.2-0.5,1.3-1.1V48.4h13.2
		c4,0,7.7-0.7,10.9-2L16.8,75h7L81.6,1.4H74.5z M26.5,35.3H15.2V13.1h11.3c7.6,0,12.1,4.3,12.1,11.2C38.6,31,34,35.3,26.5,35.3z"/>
</g>
<g id="Layer_2" class="st1">
	<path class="st2" d="M-1-28.1C-1-11.8-13,0.1-28.9,0.1c-15.9,0-27.9-11.9-27.9-28.2c0-16.4,12-28.2,27.9-28.2
		C-13-56.3-1-44.5-1-28.1z M-15.4-28.1c0-10-6.5-15.1-13.5-15.1c-7,0-13.5,5.1-13.5,15.1c0,9.9,6.5,15.1,13.5,15.1
		C-21.9-13-15.4-18.1-15.4-28.1z"/>
	<path class="st2" d="M138-28.1c0,16.3-12,28.2-27.9,28.2c-15.9,0-27.9-11.9-27.9-28.2c0-16.4,12-28.2,27.9-28.2
		C126-56.3,138-44.5,138-28.1z M123.6-28.1c0-10-6.5-15.1-13.5-15.1c-7,0-13.5,5.1-13.5,15.1c0,9.9,6.5,15.1,13.5,15.1
		C117.2-13,123.6-18.1,123.6-28.1z"/>
	<path class="st2" d="M-1,104.2c0,16.3-12,28.2-27.9,28.2c-15.9,0-27.9-11.9-27.9-28.2c0-16.4,12-28.2,27.9-28.2
		C-13,76-1,87.7-1,104.2z M-15.4,104.2c0-10-6.5-15.1-13.5-15.1c-7,0-13.5,5.1-13.5,15.1c0,9.9,6.5,15.1,13.5,15.1
		C-21.9,119.3-15.4,114.2-15.4,104.2z"/>
	<path class="st2" d="M138,104.2c0,16.3-12,28.2-27.9,28.2c-15.9,0-27.9-11.9-27.9-28.2c0-16.4,12-28.2,27.9-28.2
		C126,76,138,87.7,138,104.2z M123.6,104.2c0-10-6.5-15.1-13.5-15.1c-7,0-13.5,5.1-13.5,15.1c0,9.9,6.5,15.1,13.5,15.1
		C117.2,119.3,123.6,114.2,123.6,104.2z"/>
</g>
</svg>
